<?xml version="1.0" encoding="UTF-8"?>
<svg version="1.1" xmlns="http://www.w3.org/2000/svg" width="1024" height="1024">
<path d="M0 0 C37.44257707 -0.06465364 74.88487076 -0.09544901 112.32746887 -0.02956009 C115.18783182 -0.02457819 118.04819484 -0.01963556 120.90855789 -0.01471138 C121.61283579 -0.01347792 122.31711369 -0.01224446 123.04273334 -0.01097362 C133.62589361 0.00711691 144.20893622 0.00622304 154.79210281 -0.00506783 C166.85988318 -0.01789142 178.92727279 -0.00517534 190.99501014 0.03860676 C197.14309028 0.06032415 203.2906627 0.07154573 209.43876266 0.05223274 C234.43533744 -0.01803665 257.43972225 0.27463553 281.39769363 8.00793266 C283.75095814 8.71823049 286.10559676 9.4239905 288.46153641 10.1253643 C304.93002695 15.05061616 304.93002695 15.05061616 311.36668777 21.16564751 C315.06046161 24.51619654 319.28964702 27.10606641 323.46019363 29.82043266 C324.83848343 30.72946342 324.83848343 30.72946342 326.24461746 31.65685844 C329.71355048 33.94408696 333.19071888 36.21859713 336.66820145 38.49279594 C348.962175 46.54358904 359.36294707 54.2518769 368.39769363 66.00793266 C369.56751785 67.43879204 369.56751785 67.43879204 370.76097488 68.89855766 C381.03583685 81.6806826 389.08597666 95.89322029 396.33519363 110.57043266 C396.77146072 111.43007622 397.20772781 112.28971977 397.65721512 113.17541313 C405.56628476 129.70023608 407.13801585 146.11085578 407.0729866 164.18444633 C407.08308658 166.47058736 407.09533367 168.75671973 407.10951996 171.04283905 C407.14185866 177.27319523 407.14342594 183.50322201 407.13937235 189.73364663 C407.14015219 195.77612891 407.16402758 201.8184966 407.18684785 207.86092525 C407.23529189 220.96236376 407.2547751 234.06372453 407.26153664 247.16524386 C407.267487 258.62343717 407.28341002 270.08156453 407.30846024 281.53973198 C407.31511711 284.62572919 407.32174192 287.71172646 407.32835007 290.79772377 C407.32999445 291.56491883 407.33163883 292.3321139 407.33333305 293.1225573 C407.41919303 333.59222786 407.42155215 374.06180753 407.39904141 414.53154576 C407.39769416 417.00697109 407.39643787 419.48239645 407.39521217 421.95782185 C407.37301271 466.58450244 407.30860208 511.21094252 407.18392241 555.83745772 C407.1630041 563.37185719 407.14372819 570.90625507 407.12836838 578.44066811 C407.12684902 579.18566945 407.12532967 579.9306708 407.12376427 580.69824795 C407.12071335 582.19824929 407.11766354 583.69825064 407.11461483 585.19825199 C407.08685988 598.77718228 407.04815235 612.35601676 406.99106681 625.93485755 C406.96374602 632.47552948 406.94091854 639.01614918 406.93040466 645.55687332 C406.9204877 651.54619255 406.89658947 657.53529071 406.86165643 663.52451479 C406.8513749 665.68616458 406.8460072 667.84784475 406.84615874 670.00951898 C406.84293575 685.89144147 405.52193866 699.54089207 398.83519363 714.19543266 C398.39538162 715.17810112 397.95556961 716.16076958 397.50242996 717.17321587 C391.4261845 730.57386482 384.64563927 743.36257724 376.71019363 755.75793266 C376.18772049 756.57995171 375.66524734 757.40197075 375.12694168 758.24889946 C372.13982997 762.80303598 368.98582649 766.70488661 365.0182991 770.44177055 C363.29542252 772.10676804 361.75505228 773.86524525 360.21019363 775.69543266 C346.67737735 791.31720716 331.20123662 804.1303188 312.63444901 813.31818962 C309.11413811 815.07816562 305.77289066 816.99384582 302.42412186 819.05888176 C280.23087305 831.73651819 255.82531502 829.67197372 231.02991414 829.45936894 C225.02982718 829.41987728 219.03005391 829.4375837 213.02992288 829.45328134 C200.7791296 829.48333038 188.52906363 829.45771776 176.27840042 829.39867973 C164.16247461 829.340374 152.0468762 829.30602434 139.93080521 829.30322075 C139.17406343 829.30302515 138.41732165 829.30282955 137.63764831 829.30262803 C134.56545399 829.30190936 131.4932597 829.30136138 128.42106531 829.30103713 C99.70566077 829.29793116 70.99073965 829.23134307 42.27553372 829.12855443 C16.89030162 829.03778894 -8.49475661 828.97880765 -33.8801384 828.95275688 C-35.50804941 828.95106173 -37.13596042 828.94936415 -38.76387143 828.94766414 C-39.56859782 828.94682587 -40.3733242 828.9459876 -41.20243623 828.94512393 C-45.25270831 828.94090414 -49.30298037 828.93667096 -53.35325241 828.93241692 C-54.15219426 828.93158566 -54.95113611 828.9307544 -55.77428831 828.92989796 C-81.4874635 828.90287825 -107.2005897 828.84978821 -132.91370547 828.78914088 C-140.42264067 828.77144757 -147.93157545 828.75459057 -155.44051743 828.74002266 C-171.21298179 828.70909011 -186.98533902 828.66959523 -202.75769418 828.60200804 C-209.27374976 828.57426022 -215.78975064 828.55109148 -222.30586052 828.54052353 C-228.27300998 828.53060015 -234.2399383 828.50674251 -240.20699263 828.47186792 C-242.36058044 828.46160487 -244.51419866 828.45624862 -246.66781092 828.45640528 C-258.05970903 828.45408159 -268.56354249 828.10640767 -279.60230637 825.00793266 C-280.61555387 824.72608997 -281.62880136 824.44424728 -282.67275333 824.15386391 C-298.77529936 819.52424529 -313.75557471 812.69352227 -328.60230637 805.00793266 C-329.72862473 804.42712944 -329.72862473 804.42712944 -330.87769699 803.83459282 C-339.23906027 799.46204415 -346.54727958 794.28019711 -353.60230637 788.00793266 C-355.06797043 786.70662407 -355.06797043 786.70662407 -356.56324387 785.37902641 C-359.12026595 783.08244558 -361.6383555 780.74766826 -364.1379509 778.38879204 C-365.53435993 777.07200486 -366.9411323 775.7662335 -368.34840012 774.46105766 C-379.93521969 763.36192716 -389.96165146 750.11290075 -397.60230637 736.00793266 C-397.97919601 735.31941216 -398.35608566 734.63089165 -398.74439621 733.92150688 C-402.04974175 727.76172612 -404.86768084 721.43844716 -407.60230637 715.00793266 C-408.04145182 713.98310909 -408.48059727 712.95828552 -408.93305016 711.90240669 C-419.31091075 686.59614004 -419.02811889 661.63678943 -418.85091686 634.65484357 C-418.81967556 628.19972231 -418.84696302 621.74478696 -418.86640549 615.28965569 C-418.89547369 603.4201812 -418.87627083 591.55126795 -418.83557315 579.6818471 C-418.79825787 568.72005466 -418.7816319 557.75845437 -418.78470993 546.79659843 C-418.78489328 546.06568511 -418.78507663 545.33477178 -418.78526554 544.58170957 C-418.78605196 541.61411081 -418.78695126 538.64651212 -418.78800832 535.67891345 C-418.79770504 507.96718445 -418.75275473 480.25579625 -418.68009587 452.54417326 C-418.61626571 428.0982658 -418.59198394 403.65264987 -418.60425949 379.20666313 C-418.60503315 377.64043363 -418.60580606 376.07420413 -418.60657823 374.50797462 C-418.60696092 373.73374711 -418.60734361 372.95951959 -418.6077379 372.16183063 C-418.60964647 368.26488926 -418.61147522 364.36794785 -418.6132164 360.47100639 C-418.61356399 359.70227493 -418.61391158 358.93354346 -418.6142697 358.1415171 C-418.62298967 337.74352158 -418.60294153 317.34555736 -418.57354069 296.94758415 C-418.5725004 296.22185704 -418.57146012 295.49612993 -418.57038831 294.74841109 C-418.56934963 294.02412684 -418.56831094 293.29984258 -418.56724077 292.55361032 C-418.56620529 291.83077626 -418.56516981 291.10794219 -418.56410296 290.36320406 C-418.56200686 288.90776045 -418.55988644 287.45231686 -418.55774152 285.99687332 C-418.5430408 275.89471203 -418.53879271 265.7925955 -418.54172952 255.69042484 C-418.5454343 242.67678077 -418.52840238 229.663456 -418.4784466 216.64989597 C-418.45485633 210.38758247 -418.44038959 204.12563305 -418.45212173 197.86327744 C-418.46256759 192.11789133 -418.44473603 186.37327058 -418.40557253 180.6280148 C-418.3961996 178.56539267 -418.39655414 176.50269462 -418.40839326 174.44008517 C-418.56031252 145.1091448 -408.54245036 117.94167864 -393.60230637 93.00793266 C-393.19109543 92.31683403 -392.77988449 91.6257354 -392.35621262 90.91369438 C-386.40923179 81.06949129 -379.23331214 72.79919015 -371.17994308 64.6163311 C-369.83559204 63.24576708 -368.51514197 61.85182613 -367.19996262 60.45324516 C-360.93154003 53.89299658 -353.82513617 48.46203374 -346.60230637 43.00793266 C-345.64968918 42.28347954 -344.69707199 41.55902641 -343.71558762 40.81262016 C-334.14489568 33.68699551 -323.9409605 27.69357216 -313.53980637 21.88293266 C-312.83267502 21.48735161 -312.12554367 21.09177055 -311.3969841 20.68420219 C-309.14264418 19.43821375 -306.87476824 18.2205421 -304.60230637 17.00793266 C-303.71551193 16.5226812 -302.8287175 16.03742973 -301.91505051 15.53747368 C-293.93999616 11.32988726 -285.78550203 8.66347573 -277.16480637 6.19543266 C-275.81620825 5.79863329 -274.46789902 5.40085073 -273.11988449 5.00207329 C-264.93786375 2.60050365 -257.69176154 0.86088879 -249.12556076 0.84298515 C-248.26980461 0.83733878 -247.41404847 0.8316924 -246.53236032 0.82587492 C-243.65105884 0.80812649 -240.76977489 0.79742666 -237.88843918 0.78674126 C-235.80686615 0.77554668 -233.7252952 0.76395943 -231.64372635 0.75201225 C-225.91168046 0.72053565 -220.17962221 0.69553294 -214.44753933 0.67188025 C-209.53254136 0.6509495 -204.6175619 0.6266685 -199.70257878 0.60253584 C-182.79184018 0.51997645 -165.88105671 0.45291132 -148.97023344 0.3907299 C-146.85868024 0.38295613 -144.74712727 0.37512233 -142.63557434 0.36727715 C-97.39211275 0.19957033 -52.14859564 0.0869971 -6.90488958 0.0117929 C-4.60325959 0.00793426 -2.30162978 0.00398238 0 0 Z " fill="#FEFEFE" transform="translate(515.6023063659668,96.99206733703613)"/>
<path d="M0 0 C1.18239258 0.10489746 1.18239258 0.10489746 2.38867188 0.21191406 C7.73397988 0.77706668 12.23140194 2.15985199 17.1875 4.1875 C18.12335938 4.49171875 19.05921875 4.7959375 20.0234375 5.109375 C37.13273596 10.6896385 48.79903827 24.15947876 59.1875 38.1875 C59.60499512 38.74566406 60.02249023 39.30382812 60.45263672 39.87890625 C95.17394504 86.4861682 112.81865148 139.94308221 130.41078186 194.58778381 C132.0660107 199.72760583 133.73533519 204.86193374 135.43670654 209.98666382 C151.00989628 256.95841053 161.95345372 308.34560981 164.95727539 357.74462891 C165.11969678 360.12639408 165.11969678 360.12639408 165.67919922 362.14916992 C166.94858413 367.23951317 166.91963146 372.65177929 167.25 377.875 C167.31678452 378.92453354 167.31678452 378.92453354 167.38491821 379.99526978 C168.24920786 394.1176483 168.38027443 408.22938392 168.375 422.375 C168.37581573 423.39492035 168.37663147 424.4148407 168.37747192 425.46566772 C168.37648465 436.37541161 168.22591226 447.27406229 167.79296875 458.17578125 C167.76180466 459.06621628 167.73064056 459.95665131 167.6985321 460.87406921 C167.35931953 468.36585178 165.95006176 475.17630879 163.1875 482.1875 C162.60742188 483.69957031 162.60742188 483.69957031 162.015625 485.2421875 C159.57903939 489.16779765 156.70961109 490.94579183 152.8125 493.3125 C151.6999585 494.009198 151.6999585 494.009198 150.56494141 494.7199707 C141.2693214 500.48048776 131.76741559 505.91557736 122.1875 511.1875 C121.0420874 511.81857666 119.8966748 512.44965332 118.71655273 513.09985352 C110.15761607 517.76746778 101.45715516 521.90248383 92.5 525.75 C91.12186172 526.34592267 89.74377059 526.94195439 88.36572266 527.53808594 C84.72405186 529.10992354 81.07759836 530.67036794 77.42987061 532.22808838 C75.18088562 533.19033 72.93419416 534.15775548 70.68798828 535.12646484 C31.75533588 551.89411515 -7.67348819 563.31449055 -49.0625 572.25 C-49.73237946 572.39633881 -50.40225891 572.54267761 -51.09243774 572.69345093 C-72.9859017 577.4434994 -103.86495546 580.7637316 -124.21875 568.76953125 C-128.68708537 565.62064998 -131.53708249 562.54996435 -133.5 557.375 C-134.44547433 550.75667968 -134.48591195 543.17625948 -130.63598633 537.43212891 C-126.93650814 533.01652074 -123.25073651 530.21458043 -118.125 527.625 C-117.01088745 527.04951416 -117.01088745 527.04951416 -115.87426758 526.46240234 C-109.9643495 523.5225811 -103.97568538 521.4822092 -97.6574707 519.62329102 C-68.60543607 510.96452094 -40.4230794 497.64020957 -13.8359375 483.2121582 C-11.8125 482.1875 -11.8125 482.1875 -8.8125 481.1875 C-8.8125 480.5275 -8.8125 479.8675 -8.8125 479.1875 C-9.85253174 479.51435791 -10.89256348 479.84121582 -11.96411133 480.17797852 C-46.89301904 491.13443879 -46.89301904 491.13443879 -62.75 495.25 C-63.75071533 495.51176025 -64.75143066 495.77352051 -65.7824707 496.04321289 C-79.68894832 499.56180297 -93.4749702 501.66488998 -107.75 502.8125 C-109.17128302 502.93420804 -110.59250735 503.05660348 -112.01367188 503.1796875 C-128.57370576 504.59230189 -145.06441643 505.42459241 -161.6875 505.4375 C-162.60215027 505.43850708 -163.51680054 505.43951416 -164.45916748 505.44055176 C-193.99016715 505.41893735 -223.7912269 503.93902861 -252.8125 498.1875 C-252.8125 498.8475 -252.8125 499.5075 -252.8125 500.1875 C-251.92485962 500.41336792 -251.92485962 500.41336792 -251.01928711 500.64379883 C-242.01301875 503.0123659 -233.20312786 505.92407627 -224.375 508.875 C-223.58002106 509.14039581 -222.78504211 509.40579163 -221.9659729 509.67922974 C-212.57945933 512.82098935 -203.21101261 515.99379611 -194 519.625 C-193.24468994 519.91785889 -192.48937988 520.21071777 -191.71118164 520.51245117 C-184.574594 523.42252407 -178.61657323 526.81818137 -175.47265625 534.0859375 C-173.53059741 540.26834967 -174.62585386 545.47836313 -177.44140625 551.1484375 C-182.19265662 558.21439959 -191.94138157 560.41306375 -199.8125 562.1875 C-205.97640606 563.24119675 -212.21362535 563.750961 -218.4375 564.3125 C-220.17739511 564.47813217 -221.91722206 564.64448185 -223.65698242 564.81152344 C-227.9335791 565.21737599 -232.21160782 565.60420909 -236.49078369 565.98181152 C-238.60540483 566.16915276 -240.7195067 566.36134618 -242.83349609 566.55566406 C-307.55581042 572.41170061 -363.02203752 556.18406003 -420.8125 528.1875 C-421.96806396 527.6291748 -421.96806396 527.6291748 -423.14697266 527.05957031 C-441.04632013 518.29714346 -464.74790774 506.05099405 -475.9375 488.9375 C-477.58314122 485.92746108 -477.58314122 485.92746108 -480.8125 485.1875 C-485.31600278 479.29830406 -484.98242962 471.82556816 -485.34765625 464.703125 C-485.39085999 463.89951035 -485.43406372 463.09589569 -485.47857666 462.26792908 C-486.9285427 434.77092506 -487.03355253 407.74758194 -485.5 380.25 C-485.44123688 379.1598056 -485.38247375 378.06961121 -485.32192993 376.94638062 C-484.58600877 363.55846555 -483.30081812 350.45038196 -481.1312561 337.22012329 C-480.57673272 333.68407449 -480.21337944 330.13144908 -479.83837891 326.57299805 C-478.08321298 310.20335761 -474.49753464 294.21080094 -470.8125 278.1875 C-470.59867676 277.25599121 -470.38485352 276.32448242 -470.16455078 275.36474609 C-461.93142766 240.28355737 -448.94996871 204.83829917 -433.8125 172.1875 C-433.37534668 171.24165039 -432.93819336 170.29580078 -432.48779297 169.32128906 C-413.82668314 129.19890288 -392.6767471 90.48092918 -367.875 53.8125 C-366.84681152 52.28906982 -366.84681152 52.28906982 -365.79785156 50.73486328 C-361.40937802 44.31184996 -356.7642903 38.18567957 -351.8125 32.1875 C-351.00824585 31.20765137 -351.00824585 31.20765137 -350.18774414 30.20800781 C-332.09975466 8.34346983 -332.09975466 8.34346983 -319.3125 5.375 C-317.58 5.2821875 -317.58 5.2821875 -315.8125 5.1875 C-315.1834375 5.125625 -314.554375 5.06375 -313.90625 5 C-302.01393474 4.29001103 -289.96580126 8.77834914 -280.8125 16.1875 C-275.85751708 20.73402865 -271.65330895 25.69163151 -267.625 31.0625 C-267.06820557 31.79863525 -266.51141113 32.53477051 -265.93774414 33.29321289 C-260.57717425 40.42270264 -255.3835772 47.66445828 -250.31835938 55.00634766 C-249.29531659 56.48816741 -248.26780666 57.96691095 -247.23632812 59.44287109 C-240.32637303 69.34897256 -234.58053711 79.08111415 -229.8125 90.1875 C-229.15239771 91.52409537 -228.4870444 92.85813471 -227.8125 94.1875 C-222.95995669 93.65669875 -218.10768004 93.12353661 -213.25561523 92.58837891 C-211.61212829 92.407424 -209.96857562 92.2270649 -208.32495117 92.04736328 C-200.09561467 91.14724032 -191.87781264 90.21839535 -183.67578125 89.09375 C-178.46910014 88.38642465 -173.31121785 87.80116328 -168.0625 87.5625 C-167.28704834 87.52527832 -166.51159668 87.48805664 -165.71264648 87.44970703 C-145.5739074 86.60073056 -125.42125879 87.24010345 -105.29492188 88.09570312 C-103.46844013 88.16324415 -101.64023011 88.1875 -99.8125 88.1875 C-99.63050049 86.86347168 -99.63050049 86.86347168 -99.44482422 85.51269531 C-98.45088908 80.28590126 -96.16171201 75.74571745 -93.9375 70.9375 C-93.44644775 69.87426514 -92.95539551 68.81103027 -92.44946289 67.71557617 C-80.27785316 41.8802528 -61.45616936 12.12978579 -33.8125 1.1875 C-22.79319956 -2.0682024 -11.28360641 -1.07233653 0 0 Z " fill="#E8C0FC" transform="translate(673.8125,200.8125)"/>
<path d="M0 0 C0.75796875 0.763125 1.5159375 1.52625 2.296875 2.3125 C3.74399471 3.75125486 5.19943887 5.18297144 6.703125 6.5625 C10.59352342 10.17781974 13.56399055 14.15600609 16.5 18.5625 C19.86523537 23.55707016 23.06799447 27.52242332 28 31 C28.98097656 31.71800781 29.96195312 32.43601562 30.97265625 33.17578125 C42.70846235 41.6420403 55.75647671 49.71078376 70.88867188 47.4140625 C74.71089796 46.66446775 78.44016401 45.61708444 82.1875 44.5625 C102.57714435 39.06341489 121.16919264 38.49594185 140 49.125 C142.01863987 50.38733746 144.01712093 51.68220132 146 53 C146.62938477 53.41588379 147.25876953 53.83176758 147.90722656 54.26025391 C152.05061478 57.01093161 156.13870898 59.82984892 160.18896484 62.71582031 C161.75504371 63.82630492 163.3388863 64.91165823 164.92578125 65.9921875 C175.05355071 73.33206397 181.79874027 84.79473204 184.6875 96.875 C186.18015386 111.80153865 181.91435768 122.56624073 173.0703125 134.6328125 C158.76966546 151.84755366 135.792875 160.7148601 114 163 C95.40533453 163.94823014 79.85090644 157.95918138 66 146 C65.20980469 145.33226562 64.41960937 144.66453125 63.60546875 143.9765625 C52.59091619 134.40333265 43.10548052 123.52813536 34.39550781 111.85449219 C29.87656335 105.84926088 25.22081316 99.94605219 20.58642578 94.02978516 C19.22627387 92.28951076 17.87591545 90.54220716 16.52734375 88.79296875 C8.25539712 78.29915623 -1.49134108 70.06997503 -12.30493164 62.32250977 C-16.39618753 59.35855787 -19.91420102 56.16799599 -23.4309082 52.54345703 C-25.27752446 50.72700954 -27.19808719 49.35900215 -29.4375 48.0625 C-30.11683594 47.66160156 -30.79617188 47.26070313 -31.49609375 46.84765625 C-31.99238281 46.56792969 -32.48867188 46.28820312 -33 46 C-32.67 44.68 -32.34 43.36 -32 42 C-29.5401775 41.09433808 -28.38560341 40.84892404 -25.90625 41.8203125 C-25.1121875 42.25085938 -24.318125 42.68140625 -23.5 43.125 C-12.16392989 48.57972191 1.43177171 51.68291167 14 52 C12.46898074 48.3918357 10.91873568 44.79944213 9.28125 41.23828125 C2.98932412 27.46533559 0.51825843 15.08310732 0 0 Z " fill="#FEFEFE" transform="translate(303,437)"/>
<path d="M0 0 C0.99 0.495 0.99 0.495 2 1 C1.53935862 5.54668328 1.53935862 5.54668328 -0.83496094 7.54223633 C-1.62676758 7.96786865 -2.41857422 8.39350098 -3.234375 8.83203125 C-4.11109863 9.31591309 -4.98782227 9.79979492 -5.89111328 10.29833984 C-6.8345459 10.7980127 -7.77797852 11.29768555 -8.75 11.8125 C-10.70151275 12.88230714 -12.65203923 13.95391543 -14.6015625 15.02734375 C-16.01550293 15.79860596 -16.01550293 15.79860596 -17.45800781 16.58544922 C-20.42462399 18.23629191 -23.27688753 20.02811474 -26.125 21.875 C-35.9023383 27.97950397 -46.32369653 32.9924753 -56.57568359 38.24365234 C-64.42273798 42.26844268 -72.24145107 46.3464689 -80.04541016 50.45410156 C-83.26567573 52.13900667 -86.49832041 53.79895344 -89.73046875 55.4609375 C-91.94579671 56.61886576 -94.16065252 57.77769783 -96.375 58.9375 C-97.42260498 59.46931885 -98.47020996 60.0011377 -99.54956055 60.54907227 C-100.51031494 61.05752686 -101.47106934 61.56598145 -102.4609375 62.08984375 C-103.31478027 62.53191162 -104.16862305 62.97397949 -105.04833984 63.42944336 C-107.24568318 64.89118911 -107.24568318 64.89118911 -107.78369141 67.68188477 C-107.85507324 68.44686279 -107.92645508 69.21184082 -108 70 C-102.4184341 71.88028887 -96.83482193 73.75440521 -91.25 75.625 C-90.42056885 75.90310516 -89.5911377 76.18121033 -88.73657227 76.46774292 C-79.69962909 79.49419809 -70.67287012 82.47040637 -61.5 85.0625 C-39.99372612 91.26001189 -19.33424534 100.74741701 1 110 C1.92828613 110.42087891 2.85657227 110.84175781 3.81298828 111.27539062 C6.42227735 112.46419677 9.02504077 113.6659433 11.625 114.875 C12.376604 115.21998535 13.12820801 115.5649707 13.90258789 115.92041016 C18.67493799 118.1748834 22.94064706 120.60122418 27 124 C27 125.32 27 126.64 27 128 C20.58140273 128.25808151 15.72738766 127.6579606 9.73046875 125.4375 C8.97636215 125.17073456 8.22225555 124.90396912 7.44529724 124.62911987 C5.02070678 123.76685284 2.60420061 122.88411208 0.1875 122 C-1.49725913 121.39516131 -3.18231981 120.79116191 -4.86767578 120.18798828 C-13.85099398 116.95696223 -22.77264064 113.60463324 -31.59594727 109.95678711 C-40.38679624 106.35391861 -49.3672206 103.27444677 -58.32983398 100.13183594 C-66.07925499 97.41130011 -73.77437694 94.58085398 -81.4375 91.625 C-98.69036575 85.00986378 -116.40335889 79.61708803 -134 74 C-133.16502703 70.09066694 -131.76103847 67.94950526 -129 65 C-126.3984375 63.3671875 -126.3984375 63.3671875 -123.375 61.875 C-118.76480329 59.50330992 -114.3271618 57.01932479 -109.93788147 54.260849 C-102.64503249 49.69399564 -95.25725726 45.444735 -87.61328125 41.4921875 C-86.6278685 40.98040451 -85.64245575 40.46862152 -84.62718201 39.94132996 C-71.17245263 32.98257143 -57.58853636 26.27825485 -44.01489258 19.55541992 C-40.53023069 17.8283652 -37.0477358 16.09704251 -33.56640625 14.36328125 C-32.4627774 13.81495636 -31.35914856 13.26663147 -30.22207642 12.70169067 C-23.24835931 9.20939528 -16.39506276 5.56498864 -9.77528381 1.43415833 C-6.12771682 -0.75136749 -4.06432378 -1.44939472 0 0 Z " fill="#FFFFFF" transform="translate(703,459)"/>
<path d="M0 0 C1.12894876 0.93274109 2.25300876 1.87140122 3.375 2.8125 C4.00148438 3.33457031 4.62796875 3.85664063 5.2734375 4.39453125 C7.95447253 6.88752989 8.96606754 8.45504468 9.1953125 12.13671875 C9.17210937 13.30847656 9.14890625 14.48023438 9.125 15.6875 C9.10695313 16.86699219 9.08890625 18.04648438 9.0703125 19.26171875 C9.03550781 20.61716797 9.03550781 20.61716797 9 22 C4.80264582 16.6178071 -0.41837442 9.8969883 -0.375 2.8125 C-0.25125 1.884375 -0.1275 0.95625 0 0 Z " fill="#FFFFFF" transform="translate(911,187)"/>
<path d="M0 0 C0.66 0 1.32 0 2 0 C0.61963797 5.69399336 -3.67818816 8.46185601 -8 12 C-9.33586595 13.14287969 -10.66941241 14.28847935 -12 15.4375 C-12.99 16.283125 -13.98 17.12875 -15 18 C-13.4945581 14.43064582 -11.40712438 12.22908765 -8.625 9.5625 C-6.07881919 7.08579764 -3.77871148 4.72197083 -1.5625 1.9375 C-1.046875 1.298125 -0.53125 0.65875 0 0 Z " fill="#FFFFFF" transform="translate(918,883)"/>
<path d="M0 0 C7.45266655 0 11.60265874 4.23252955 17 9 C12.90540797 9 10.23249165 7.03072724 6.8125 5 C6.15830078 4.6184375 5.50410156 4.236875 4.83007812 3.84375 C3.21666455 2.90161068 1.60787702 1.95155734 0 1 C0 0.67 0 0.34 0 0 Z " fill="#FFFFFF" transform="translate(816,100)"/>
<path d="M0 0 C3.96 0.33 7.92 0.66 12 1 C12 1.33 12 1.66 12 2 C10.35 2 8.7 2 7 2 C7 2.66 7 3.32 7 4 C4.69 3.34 2.38 2.68 0 2 C0 1.34 0 0.68 0 0 Z " fill="#F7EBFE" transform="translate(421,699)"/>
<path d="M0 0 C0.33 0 0.66 0 1 0 C0.38909774 6.47556391 0.38909774 6.47556391 -1.4375 8.9375 C-3 10 -3 10 -5 10 C-3.66654496 6.40992874 -2.1056769 3.20429093 0 0 Z " fill="#FFFFFF" transform="translate(919,842)"/>
<path d="M0 0 C0.66 0.33 1.32 0.66 2 1 C-0.25 3.5625 -0.25 3.5625 -3 6 C-4.32 5.67 -5.64 5.34 -7 5 C-4.69 3.35 -2.38 1.7 0 0 Z " fill="#FFFFFF" transform="translate(862,917)"/>
<path d="M0 0 C0.99 0 1.98 0 3 0 C2.34 1.98 1.68 3.96 1 6 C0.67 6 0.34 6 0 6 C0 4.02 0 2.04 0 0 Z " fill="#FFFFFF" transform="translate(100,181)"/>
<path d="M0 0 C2.31 0.66 4.62 1.32 7 2 C5.1875 2.6875 5.1875 2.6875 3 3 C1.25 1.5625 1.25 1.5625 0 0 Z " fill="#FFFFFF" transform="translate(204,920)"/>
<path d="M0 0 C0.33 0 0.66 0 1 0 C1 1.98 1 3.96 1 6 C0.01 5.01 -0.98 4.02 -2 3 C-1.34 2.01 -0.68 1.02 0 0 Z " fill="#FFFFFF" transform="translate(919,160)"/>
<path d="M0 0 C1.98 0.99 1.98 0.99 4 2 C3.67 2.66 3.34 3.32 3 4 C2.01 2.68 1.02 1.36 0 0 Z " fill="#FFFFFF" transform="translate(852,100)"/>
<path d="M0 0 C0 3 0 3 0 3 Z " fill="#FFFFFF" transform="translate(117,170)"/>
<path d="M0 0 C0.66 0 1.32 0 2 0 C1.67 0.66 1.34 1.32 1 2 C0.67 1.34 0.34 0.68 0 0 Z " fill="#FFFFFF" transform="translate(918,100)"/>
<path d="M0 0 C2 1 2 1 2 1 Z " fill="#FFFFFF" transform="translate(156,921)"/>
<path d="M0 0 C2 1 2 1 2 1 Z " fill="#FFFFFF" transform="translate(152,918)"/>
<path d="" fill="#FFFFFF" transform="translate(0,0)"/>
<path d="" fill="#FFFFFF" transform="translate(0,0)"/>
<path d="" fill="#FFFFFF" transform="translate(0,0)"/>
<path d="" fill="#FFFFFF" transform="translate(0,0)"/>
<path d="" fill="#FFFFFF" transform="translate(0,0)"/>
<path d="" fill="#FFFFFF" transform="translate(0,0)"/>
<path d="" fill="#FFFFFF" transform="translate(0,0)"/>
<path d="" fill="#FFFFFF" transform="translate(0,0)"/>
<path d="" fill="#FFFFFF" transform="translate(0,0)"/>
<path d="" fill="#FFFFFF" transform="translate(0,0)"/>
<path d="" fill="#FFFFFF" transform="translate(0,0)"/>
<path d="" fill="#FFFFFF" transform="translate(0,0)"/>
<path d="" fill="#FFFFFF" transform="translate(0,0)"/>
<path d="" fill="#FFFFFF" transform="translate(0,0)"/>
<path d="" fill="#FFFFFF" transform="translate(0,0)"/>
<path d="" fill="#FFFFFF" transform="translate(0,0)"/>
<path d="" fill="#FFFFFF" transform="translate(0,0)"/>
<path d="" fill="#FFFFFF" transform="translate(0,0)"/>
<path d="" fill="#FFFFFF" transform="translate(0,0)"/>
</svg>
