<?xml version="1.0" encoding="UTF-8"?>
<svg version="1.1" xmlns="http://www.w3.org/2000/svg" width="1024" height="1024">
<path d="M0 0 C1.28136034 -0.00487653 1.28136034 -0.00487653 2.58860675 -0.00985157 C5.45867069 -0.01953645 8.32869683 -0.02214143 11.19877529 -0.02475739 C13.27456042 -0.03020516 15.35034449 -0.03606878 17.42612737 -0.0423131 C23.13717773 -0.05815987 28.8482238 -0.06767841 34.55928934 -0.07607794 C39.45678384 -0.08408487 44.35426676 -0.09577509 49.25175358 -0.10749274 C66.09715449 -0.14772356 82.94256405 -0.17468694 99.78799467 -0.19819555 C101.89120797 -0.20114036 103.99442119 -0.20413031 106.0976344 -0.20713353 C132.88809192 -0.24531486 159.67855531 -0.27879667 186.46903169 -0.30039268 C193.27872154 -0.30588606 200.08841123 -0.3115858 206.89810085 -0.31735992 C207.65049677 -0.31799235 208.40289268 -0.31862478 209.17808847 -0.31927637 C233.52577131 -0.33991775 257.87332004 -0.38583656 282.22093488 -0.44601261 C307.28159884 -0.50783728 332.34219107 -0.54663064 357.40293242 -0.55589593 C360.95216365 -0.55721242 364.50139474 -0.55877435 368.0506258 -0.56047821 C368.74904883 -0.56080367 369.44747185 -0.56112913 370.16705921 -0.56146445 C381.35069884 -0.5673125 392.53415378 -0.59677478 403.71772368 -0.63518443 C414.99130135 -0.6733473 426.2646812 -0.6846691 437.53833557 -0.67142183 C443.6321656 -0.66499634 449.72542843 -0.66948461 455.81916904 -0.70529556 C480.72330089 -0.84386163 503.55390615 -0.56152734 527.42471218 7.14260101 C529.7785209 7.85306523 532.13370331 8.55899312 534.4901886 9.26052856 C550.95703148 14.1852712 550.95703148 14.1852712 557.39370632 20.30031586 C561.08748016 23.65086489 565.31666557 26.24073476 569.48721218 28.95510101 C570.86550198 29.86413177 570.86550198 29.86413177 572.27163601 30.79152679 C575.74056903 33.07875531 579.21773743 35.35326548 582.69521999 37.62746429 C594.98919355 45.67825739 605.38996562 53.38654525 614.42471218 65.14260101 C615.5945364 66.57346039 615.5945364 66.57346039 616.78799343 68.03322601 C635.03155353 90.72856394 652.61780948 120.56861748 652.55613995 150.3532486 C652.5592189 151.73758716 652.5592189 151.73758716 652.56236005 153.14989215 C652.56803043 156.25335079 652.56657274 159.35676505 652.56515408 162.46022797 C652.56773769 164.70344532 652.57075084 166.94666221 652.57415748 169.18987846 C652.58223122 175.36315379 652.58401726 181.5364175 652.58475494 187.70969748 C652.58641494 193.6811323 652.59273259 199.65256175 652.59883336 205.62399329 C652.61488806 221.62221363 652.62079618 237.62043302 652.6255821 253.61865997 C652.62791873 261.18879575 652.63152147 268.75893076 652.63527748 276.32906595 C652.64811295 302.24855884 652.6588318 328.1680513 652.66228008 354.0875473 C652.66250171 355.71443168 652.6627235 357.34131606 652.66294543 358.96820045 C652.66316607 360.59898996 652.66338656 362.22977948 652.66360688 363.860569 C652.66404943 367.13215129 652.66449655 370.40373357 652.66494656 373.67531586 C652.66505595 374.48647718 652.66516534 375.2976385 652.66527804 376.13338047 C652.6689078 402.42892412 652.68482481 428.72444018 652.70813692 455.01997326 C652.73274549 482.82879154 652.74645341 510.63759405 652.747648 538.44642353 C652.74781945 541.5005347 652.74803488 544.55464586 652.74828243 547.60875702 C652.7483382 548.36075111 652.74839397 549.11274519 652.74845143 549.88752698 C652.74960102 561.97785466 652.76061531 574.06815398 652.77516949 586.15847208 C652.78955207 598.31672379 652.79276155 610.47493925 652.78472951 622.63319713 C652.78067215 629.21711823 652.78175073 635.8009631 652.79578686 642.38487434 C652.808528 648.41656825 652.80732617 654.44809545 652.79519615 660.47978914 C652.79323954 662.6575042 652.79631588 664.83523109 652.80504051 667.01292956 C652.86488353 682.96472589 651.57930925 696.60904147 644.86221218 711.33010101 C644.42240017 712.31276947 643.98258816 713.29543793 643.52944851 714.30788422 C637.45320305 727.70853317 630.67265781 740.49724559 622.73721218 752.89260101 C622.21473904 753.71462006 621.69226589 754.5366391 621.15396023 755.38356781 C618.16684852 759.93770433 615.01284504 763.83955496 611.04531765 767.5764389 C609.32244107 769.24143639 607.78207083 770.9999136 606.23721218 772.83010101 C592.70440169 788.45186883 577.22879794 801.26232347 558.66359711 810.45273399 C555.13861214 812.21520735 551.78872509 814.13239287 548.43197441 816.19466591 C526.34203464 828.77764281 502.2347521 826.79420465 477.56000555 826.56470656 C471.62314583 826.52149746 465.68647686 826.53563721 459.74953239 826.54781972 C447.6245058 826.5707298 435.50024309 826.53816981 423.37539768 826.47249222 C411.38203513 826.407656 399.38899949 826.36728564 387.39545918 826.35900497 C386.64627034 826.35847035 385.89708151 826.35793572 385.12518998 826.35738489 C381.31931699 826.35478005 377.51344387 826.3525823 373.70757055 826.35052706 C346.8222996 826.33514133 319.9374547 826.26278077 293.05239773 826.15773773 C266.98208356 826.05595316 240.91195574 825.98516246 214.84146023 825.95265961 C214.03713583 825.95164742 213.23281144 825.95063523 212.40411358 825.94959237 C205.93253691 825.94146249 199.46096006 825.93346793 192.98938292 825.92571348 C164.30130492 825.89132262 135.61326889 825.83374639 106.92524323 825.76974136 C103.92109167 825.76305455 100.91693983 825.75653325 97.91278759 825.75016183 C80.63170178 825.71351068 63.35067426 825.67066512 46.06967575 825.60376213 C39.54867323 825.57860134 33.02769178 825.55638237 26.50665379 825.54251099 C20.53573228 825.52961676 14.56491922 825.50744303 8.59405779 825.47784616 C6.43653466 825.46868402 4.27899463 825.46278417 2.12145323 825.46051274 C-13.17797431 825.44150388 -26.66699181 824.17100272 -41.26278782 819.26760101 C-42.42254124 818.87902924 -43.58229465 818.49045746 -44.77719212 818.09011078 C-57.20591373 813.78381183 -68.9234642 808.21373477 -80.57528782 802.14260101 C-81.6950803 801.56397308 -81.6950803 801.56397308 -82.83749485 800.9736557 C-91.20426712 796.59942719 -98.51588905 791.41875236 -105.57528782 785.14260101 C-107.04095188 783.84129242 -107.04095188 783.84129242 -108.53622532 782.51369476 C-111.0932474 780.21711393 -113.61133696 777.88233661 -116.11093235 775.52346039 C-117.50734138 774.20667321 -118.91411376 772.90090185 -120.32138157 771.59572601 C-131.90820114 760.49659551 -141.93463291 747.2475691 -149.57528782 733.14260101 C-149.95217747 732.45408051 -150.32906712 731.76556 -150.71737766 731.05617523 C-154.02270042 724.89643693 -156.84213646 718.57373752 -159.57528782 712.14260101 C-160.01460203 711.11487859 -160.45391625 710.08715616 -160.90654302 709.02829063 C-171.20244262 683.85211878 -170.99056467 659.13164254 -170.79458022 632.29263532 C-170.75915856 625.90763666 -170.78243669 619.52278992 -170.79791355 613.13774872 C-170.8166752 602.10861152 -170.79929532 591.0800459 -170.75484943 580.05098915 C-170.70830736 568.49159159 -170.68122788 556.93242544 -170.67981434 545.37293053 C-170.67970744 544.64976526 -170.67960054 543.92659999 -170.67949041 543.18152062 C-170.67911311 540.24512647 -170.67887004 537.30873236 -170.67880576 534.37233819 C-170.67812657 506.91945951 -170.6242572 479.46693088 -170.54242156 452.01418583 C-170.47007249 427.6665779 -170.43188705 403.3191731 -170.42636204 378.97145844 C-170.42617903 378.1961 -170.42599602 377.42074156 -170.42580747 376.62188741 C-170.42525458 374.2760744 -170.4247116 371.9302614 -170.42416942 369.5844484 C-170.42344328 366.46808056 -170.42269648 363.35171272 -170.42193508 360.23534489 C-170.42175463 359.46626437 -170.42157417 358.69718385 -170.42138825 357.90479787 C-170.41541799 333.84392357 -170.38048685 309.78308657 -170.34055986 285.72224775 C-170.32735718 277.75658672 -170.31596562 269.79093157 -170.31017923 261.82526135 C-170.30965688 261.11023024 -170.30913453 260.39519913 -170.30859635 259.6585004 C-170.3080781 258.94507515 -170.30755985 258.2316499 -170.30702589 257.4966057 C-170.29701354 243.7338413 -170.27395369 229.97124745 -170.2244253 216.20856173 C-170.20205278 209.92584514 -170.18574848 203.64328149 -170.18669224 197.36052132 C-170.18731236 191.60162379 -170.16927081 185.84308732 -170.1367562 180.0842843 C-170.12817549 178.00959898 -170.12614538 175.9348731 -170.13160835 173.86017723 C-170.15984685 161.36618384 -169.05521661 150.15964186 -165.57528782 138.14260101 C-165.25022436 137.00443217 -164.9251609 135.86626333 -164.59024704 134.69360453 C-160.68787194 121.37763909 -155.7556197 109.01158244 -148.57528782 97.14260101 C-148.09962376 96.34370453 -147.62395969 95.54480804 -147.13388157 94.72170258 C-140.21494329 83.21520739 -132.62845915 73.13596404 -123.10458469 63.67043304 C-121.77324856 62.34037214 -120.47576075 60.97659927 -119.18466282 59.60744476 C-112.92214816 53.03180437 -105.80324072 47.60057064 -98.57528782 42.14260101 C-97.62267063 41.41814789 -96.67005344 40.69369476 -95.68856907 39.94728851 C-86.11787713 32.82166386 -75.91394195 26.82824051 -65.51278782 21.01760101 C-64.80565647 20.62201996 -64.09852512 20.2264389 -63.36996555 19.81887054 C-61.115623 18.57288064 -58.84780365 17.3551163 -56.57528782 16.14260101 C-55.68776829 15.65734955 -54.80024876 15.17209808 -53.88583469 14.67214203 C-46.55853907 10.80858059 -39.10946362 8.17711541 -31.18222141 5.89968109 C-29.1781143 5.32372865 -27.17931418 4.73163735 -25.18075657 4.13674164 C-16.64764762 1.62516759 -8.93424862 -0.00708628 0 0 Z " fill="#000000" transform="translate(268.5752878189087,98.8573989868164)"/>
<path d="M0 0 C0.721875 0.24105469 1.44375 0.48210937 2.1875 0.73046875 C35.5642931 12.1235087 58.6998235 59.06373574 73.25390625 88.49609375 C93.11279921 129.65773594 106.05509166 174.51892217 119.42633057 218.13098145 C119.93146601 219.77671584 120.44075008 221.42117566 120.95068359 223.06542969 C126.97197557 242.70622434 130.50550213 263.08812972 134.45391846 283.22259521 C134.9780426 285.88832329 135.50750182 288.55293376 136.03857422 291.21728516 C140.05197318 311.41220829 143.08032679 331.35925092 144.72802734 351.88769531 C145.01661482 355.19013077 145.41120134 358.4627263 145.8605957 361.74633789 C148.7593515 383.0279698 148.09553909 404.82120694 148.125 426.25 C148.12767883 427.35341736 148.13035767 428.45683472 148.13311768 429.59368896 C148.19715607 464.4053485 148.19715607 464.4053485 145.1875 475.125 C144.87167969 476.30320312 144.55585937 477.48140625 144.23046875 478.6953125 C141.5797334 485.81443029 137.82139384 489.27805599 131.5625 493.125 C130.45890137 493.82061035 130.45890137 493.82061035 129.33300781 494.53027344 C120.06084151 500.31137837 110.54822422 505.69128167 101 511 C100.31260742 511.38236816 99.62521484 511.76473633 98.91699219 512.15869141 C93.04827264 515.40782521 87.21765116 518.46688286 81 521 C79.29012029 521.78832117 77.58196159 522.58037995 75.875 523.375 C71.73983956 525.26909687 67.56882441 526.95959683 63.3125 528.5625 C59.05614326 530.16678052 55.04447902 531.92283697 51.0234375 534.03515625 C47.7535612 535.59434437 44.33550393 536.71814325 40.90625 537.875 C38.55178192 538.786407 36.42298014 539.77931007 34.1875 540.93359375 C30.07085386 543.0317616 25.8717875 544.58532954 21.5 546.0625 C20.07264181 546.55258564 18.64555713 547.0434686 17.21875 547.53515625 C16.52177002 547.77508301 15.82479004 548.01500977 15.10668945 548.26220703 C10.10440759 550.01407814 5.18005838 551.90266784 0.3125 554 C-4.6562318 556.01042533 -9.67699566 557.15500198 -14.90625 558.28515625 C-17.53814982 558.89328462 -20.01643378 559.60979931 -22.5625 560.5 C-31.34885956 563.5568209 -40.27477662 565.32541463 -49.48046875 566.5703125 C-51.93113086 566.73840845 -51.93113086 566.73840845 -53 568 C-55.0572917 568.31923492 -57.11613521 568.51161352 -59.1875 568.71875 C-61.0167533 568.81998043 -61.0167533 568.81998043 -62 570 C-64.58148184 570.52530154 -67.15354454 570.99875753 -69.75 571.4375 C-70.79607422 571.62022461 -70.79607422 571.62022461 -71.86328125 571.80664062 C-73.3769042 572.0679369 -74.89174046 572.32226388 -76.4074707 572.57104492 C-78.25993402 572.87755006 -80.10982083 573.19979523 -81.95776367 573.5324707 C-90.27883428 574.95376171 -98.37830368 575.34921737 -106.8125 575.3125 C-108.12895508 575.30831055 -109.44541016 575.30412109 -110.80175781 575.29980469 C-126.60321937 575.11629377 -142.40929556 573.73147411 -154.50390625 562.5859375 C-157.69959437 559.19834122 -157.40538146 555.29861876 -157.6875 550.875 C-157.74744141 550.14023437 -157.80738281 549.40546875 -157.86914062 548.6484375 C-158.31559813 541.70082488 -157.79728368 535.88058212 -153.35546875 530.28515625 C-150.09610013 526.81105739 -146.54015694 524.57336041 -142.3125 522.4375 C-141.19838745 521.86201416 -141.19838745 521.86201416 -140.06176758 521.27490234 C-134.1518495 518.3350811 -128.16318538 516.2947092 -121.8449707 514.43579102 C-96.85814108 506.98862886 -72.19294737 495.85819405 -49 484 C-52.5634802 485.12191109 -56.12560341 486.24807226 -59.6875 487.375 C-60.69490234 487.69210937 -61.70230469 488.00921875 -62.74023438 488.3359375 C-63.71669922 488.6453125 -64.69316406 488.9546875 -65.69921875 489.2734375 C-66.59471436 489.55622559 -67.49020996 489.83901367 -68.4128418 490.13037109 C-70.17825076 490.72378307 -71.92547092 491.37351035 -73.65258789 492.07055664 C-76.34099186 493.13501363 -78.89825765 493.603909 -81.75 494.0625 C-85.18223754 494.37598883 -85.18223754 494.37598883 -88 496 C-106.47304935 500.74738368 -126.04853481 501.58418621 -145 503 C-146.390979 503.11021484 -146.390979 503.11021484 -147.81005859 503.22265625 C-176.88676771 505.48665348 -207.25353791 504.90778899 -236.25512695 502.20507812 C-240.50487008 501.88756641 -244.74152957 501.91520745 -249 502 C-248.46109131 502.16604736 -247.92218262 502.33209473 -247.36694336 502.50317383 C-244.88923469 503.26904003 -242.41337503 504.04072761 -239.9375 504.8125 C-239.08994141 505.07353516 -238.24238281 505.33457031 -237.36914062 505.60351562 C-232.42818285 507.14875725 -227.73397071 508.90945089 -223 511 C-221.23443591 511.63973364 -219.46383639 512.26581635 -217.6875 512.875 C-201.44788118 518.77219308 -201.44788118 518.77219308 -197 526 C-194.37581078 533.59487569 -194.07740643 541.26408487 -196.83203125 548.85546875 C-199.90623586 554.50007856 -205.77751653 557.23246621 -211.62280273 559.33496094 C-216.38350766 560.66680444 -221.27891175 560.99148836 -226.1875 561.4375 C-228.68892755 561.68100625 -231.19022321 561.92586996 -233.69140625 562.171875 C-234.35166809 562.23549728 -235.01192993 562.29911957 -235.69219971 562.3646698 C-240.85435942 562.86763272 -246.00283202 563.46000612 -251.15234375 564.078125 C-268.19474929 566.10326969 -284.9209788 567.65789309 -302.11669922 567.09423828 C-304.93338157 567.00217737 -307.74866545 566.94974686 -310.56640625 566.90234375 C-372.61066069 565.43686257 -445.61511056 535.73324387 -493 496 C-494.29357422 495.00033203 -494.29357422 495.00033203 -495.61328125 493.98046875 C-498.44316459 491.63226768 -500.14496803 489.16042484 -502 486 C-502 485.34 -502 484.68 -502 484 C-503.32 483.67 -504.64 483.34 -506 483 C-506.49021049 481.37829738 -506.96642122 479.75236305 -507.4375 478.125 C-507.83775391 476.76761719 -507.83775391 476.76761719 -508.24609375 475.3828125 C-510.26308256 466.33248967 -510.27608795 456.98295808 -510.5625 447.75 C-510.58334656 447.08916412 -510.60419312 446.42832825 -510.62567139 445.74746704 C-511.59976142 414.48406166 -511.02897984 383.14311174 -508 352 C-507.92136719 351.17516113 -507.84273437 350.35032227 -507.76171875 349.50048828 C-506.71286571 338.70752389 -505.13821108 328.03083619 -503.37353516 317.33398438 C-503.0202305 315.12640758 -502.69726113 312.91707362 -502.38671875 310.703125 C-498.69807412 284.85349937 -492.33682515 259.7223347 -484 235 C-483.74393982 234.23737854 -483.48787964 233.47475708 -483.22406006 232.68902588 C-461.30311405 167.47031901 -430.62420443 105.65686761 -392.0625 48.625 C-391.37696045 47.60921875 -390.6914209 46.5934375 -389.98510742 45.546875 C-385.59660559 39.12410586 -380.95167469 32.99803952 -376 27 C-375.19574585 26.02015137 -375.19574585 26.02015137 -374.37524414 25.02050781 C-356.50884263 3.42382263 -356.50884263 3.42382263 -343.8125 0.1875 C-326.66227009 -0.65595393 -312.8190301 0.91351375 -299.4375 12.375 C-292.41106577 19.18507775 -286.71733656 27.08980719 -281 35 C-280.23187988 36.05912598 -280.23187988 36.05912598 -279.44824219 37.13964844 C-276.41938074 41.33330676 -273.44349408 45.56082958 -270.50585938 49.81884766 C-269.48281659 51.30066741 -268.45530666 52.77941095 -267.42382812 54.25537109 C-260.51387303 64.16147256 -254.76803711 73.89361415 -250 85 C-249.33989771 86.33659537 -248.6745444 87.67063471 -248 89 C-247.32517578 88.87955322 -246.65035156 88.75910645 -245.95507812 88.63500977 C-237.16881915 87.11414179 -228.35503867 85.96134912 -219.5 84.9375 C-218.73910065 84.84940063 -217.97820129 84.76130127 -217.19424438 84.67053223 C-202.46596908 82.989714 -187.82836542 82.18148635 -173 82 C-171.55826416 81.97728027 -171.55826416 81.97728027 -170.08740234 81.95410156 C-155.04093099 81.73851347 -140.02934962 82.32290493 -125 83 C-124.54826416 81.76588379 -124.54826416 81.76588379 -124.08740234 80.50683594 C-112.49683034 49.12329342 -92.62022931 12.01257247 -60.99609375 -2.8125 C-43.85203965 -9.60753579 -16.51996524 -7.95405734 0 0 Z " fill="#776BCA" transform="translate(696,204)"/>
<path d="M0 0 C5.06464969 3.74343673 8.3782852 7.78298825 11.875 12.9375 C15.92298784 18.8333491 20.00030032 23.01735201 26 27 C26.80308594 27.59167969 27.60617187 28.18335938 28.43359375 28.79296875 C36.56111062 34.73962306 44.44192894 38.81062183 54.1875 41.3125 C54.85281738 41.48418701 55.51813477 41.65587402 56.20361328 41.83276367 C64.27502106 43.7558172 70.59188669 42.85202199 78.375 40.5625 C79.19355469 40.33240234 80.01210938 40.10230469 80.85546875 39.86523438 C84.73536129 39.01991122 84.73536129 39.01991122 88 37 C113.12369093 32.43773772 130.49998045 39.62018983 150.87890625 53.66015625 C154.29963915 56.045685 157.65327662 58.5118601 161 61 C161.69609375 61.4846875 162.3921875 61.969375 163.109375 62.46875 C173.3174657 70.14823108 179.28994953 83.87461954 182 96 C183.29453338 105.91423124 175.89452359 116.87115068 170.125 124.375 C157.28458659 139.37181872 136.83571393 151.51497846 116.88671875 153.484375 C108.65533563 154.07904134 101.01790333 154.27937537 93 152 C91.89140625 151.69191406 90.7828125 151.38382813 89.640625 151.06640625 C66.3249909 143.71027278 47.65394287 120.96452716 33.39550781 101.85449219 C28.87781261 95.85092103 24.22375409 89.94895284 19.59082031 84.03417969 C18.61568342 82.78727352 17.64306899 81.53838326 16.67480469 80.28613281 C8.34434577 69.52051084 -1.39621966 61.28700014 -12.28491211 53.26782227 C-16.5015609 50.15791076 -20.50304354 46.92862265 -24.3828125 43.40234375 C-26.76965382 41.33259487 -29.3237108 39.67268075 -32 38 C-28.11276043 36.70425348 -26.95098905 37.60504191 -23.1875 39.125 C-16.71451255 41.53292428 -10.22627901 43.31339309 -3.5 44.875 C-2.08497192 45.2155542 -2.08497192 45.2155542 -0.64135742 45.56298828 C4.22565378 46.66037919 8.06582509 47.33222722 13 46 C13.51995963 40.40176796 11.85476289 37.12178854 9.25 32.375 C3.69849917 21.7288215 0.42944316 12.11029703 0 0 Z " fill="#000000" transform="translate(305,444)"/>
<path d="M0 0 C2.38979507 1.15369417 2.87413214 2.45088302 3.8125 4.875 C0.13271868 8.04389236 -3.48822277 10.12452909 -7.875 12.1875 C-15.44968789 15.84132158 -22.68364369 20.00021795 -29.9375 24.25 C-38.48823879 29.24740856 -47.08630651 33.95877384 -55.98242188 38.30810547 C-74.13986947 47.20584576 -91.49635731 57.46938583 -108.1875 68.875 C-107.8575 70.525 -107.5275 72.175 -107.1875 73.875 C-102.72659644 75.33011535 -98.26480255 76.78245857 -93.80206299 78.23193359 C-92.2237812 78.74459713 -90.6456157 79.25761885 -89.06756592 79.77099609 C-81.09551082 82.3625748 -73.13158054 84.94433358 -65.06665039 87.23461914 C-43.60313855 93.33218132 -23.1268514 102.60938909 -2.80029297 111.70605469 C5.81074881 115.55857459 14.32615686 119.23290372 23.38671875 121.91796875 C25.86848838 122.89708881 27.11075652 123.85453533 28.8125 125.875 C27.35925224 129.62922339 27.35925224 129.62922339 25.15600586 130.61962891 C21.78925979 130.98650216 19.28990664 130.04477431 16.06640625 129.0234375 C15.39664261 128.81354691 14.72687897 128.60365631 14.03681946 128.3874054 C11.81250653 127.68606664 9.59375604 126.96871003 7.375 126.25 C5.79905317 125.74695652 4.22304286 125.24411188 2.64697266 124.74145508 C-9.93527499 120.7034038 -22.41165666 116.37610997 -34.86010742 111.94506836 C-43.32783281 108.93137544 -51.80815687 105.96434116 -60.3203125 103.078125 C-61.25026031 102.76257156 -62.18020813 102.44701813 -63.13833618 102.12190247 C-66.79222606 100.883161 -70.44648424 99.64561025 -74.10357666 98.41635132 C-76.61713156 97.57145767 -79.12895842 96.72158132 -81.640625 95.87109375 C-82.3734671 95.62679626 -83.1063092 95.38249878 -83.86135864 95.13079834 C-88.40853651 93.5861391 -92.77152784 91.78908185 -97.13356018 89.77932739 C-100.31463376 88.37873525 -103.56090453 87.36179042 -106.875 86.3125 C-113.53621029 84.20277088 -119.28690881 81.62540308 -125.0625 77.6875 C-125.84367188 77.15769531 -126.62484375 76.62789062 -127.4296875 76.08203125 C-128.00976562 75.68371094 -128.58984375 75.28539062 -129.1875 74.875 C-126.2830114 68.29149251 -119.88991909 65.18407829 -113.6796875 62.17578125 C-107.71618141 59.23339473 -102.1404515 55.63519422 -96.5 52.125 C-94.28776042 50.75520833 -92.07552083 49.38541667 -89.86328125 48.015625 C-86.51367409 45.9404475 -83.16655357 43.86187386 -79.82763672 41.76953125 C-73.24448095 37.66705514 -66.60620129 33.87767217 -59.6875 30.375 C-48.51278671 24.6330152 -37.51528463 18.59698239 -26.53125 12.50152588 C-23.75052336 10.95840657 -20.96895655 9.41680316 -18.1875 7.875 C-17.15560547 7.30104492 -16.12371094 6.72708984 -15.06054688 6.13574219 C-14.09697266 5.60368164 -13.13339844 5.07162109 -12.140625 4.5234375 C-11.30176758 4.05856934 -10.46291016 3.59370117 -9.59863281 3.11474609 C-3.18673031 -0.18209887 -3.18673031 -0.18209887 0 0 Z " fill="#030306" transform="translate(701.1875,457.125)"/>
<path d="M0 0 C1.12894876 0.93274109 2.25300876 1.87140122 3.375 2.8125 C4.00148438 3.33457031 4.62796875 3.85664063 5.2734375 4.39453125 C7.95447253 6.88752989 8.96606754 8.45504468 9.1953125 12.13671875 C9.17210937 13.30847656 9.14890625 14.48023438 9.125 15.6875 C9.10695313 16.86699219 9.08890625 18.04648438 9.0703125 19.26171875 C9.03550781 20.61716797 9.03550781 20.61716797 9 22 C4.80264582 16.6178071 -0.41837442 9.8969883 -0.375 2.8125 C-0.25125 1.884375 -0.1275 0.95625 0 0 Z " fill="#FFFFFF" transform="translate(911,187)"/>
<path d="M0 0 C0.66 0 1.32 0 2 0 C0.61963797 5.69399336 -3.67818816 8.46185601 -8 12 C-9.33586595 13.14287969 -10.66941241 14.28847935 -12 15.4375 C-12.99 16.283125 -13.98 17.12875 -15 18 C-13.4945581 14.43064582 -11.40712438 12.22908765 -8.625 9.5625 C-6.07881919 7.08579764 -3.77871148 4.72197083 -1.5625 1.9375 C-1.046875 1.298125 -0.53125 0.65875 0 0 Z " fill="#FFFFFF" transform="translate(918,883)"/>
<path d="M0 0 C7.45266655 0 11.60265874 4.23252955 17 9 C12.90540797 9 10.23249165 7.03072724 6.8125 5 C6.15830078 4.6184375 5.50410156 4.236875 4.83007812 3.84375 C3.21666455 2.90161068 1.60787702 1.95155734 0 1 C0 0.67 0 0.34 0 0 Z " fill="#FFFFFF" transform="translate(816,100)"/>
<path d="M0 0 C0.33 0 0.66 0 1 0 C0.38909774 6.47556391 0.38909774 6.47556391 -1.4375 8.9375 C-3 10 -3 10 -5 10 C-3.66654496 6.40992874 -2.1056769 3.20429093 0 0 Z " fill="#FFFFFF" transform="translate(919,842)"/>
<path d="M0 0 C0.66 0.33 1.32 0.66 2 1 C-0.25 3.5625 -0.25 3.5625 -3 6 C-4.32 5.67 -5.64 5.34 -7 5 C-4.69 3.35 -2.38 1.7 0 0 Z " fill="#FFFFFF" transform="translate(862,917)"/>
<path d="M0 0 C3.37462715 0.54723683 5.08235 1.0549 8 3 C7.34 3.66 6.68 4.32 6 5 C3.98079663 3.69593116 1.98075027 2.36176581 0 1 C0 0.67 0 0.34 0 0 Z " fill="#141223" transform="translate(273,481)"/>
<path d="M0 0 C0.99 0 1.98 0 3 0 C2.34 1.98 1.68 3.96 1 6 C0.67 6 0.34 6 0 6 C0 4.02 0 2.04 0 0 Z " fill="#FFFFFF" transform="translate(100,181)"/>
<path d="M0 0 C2.31 0.66 4.62 1.32 7 2 C5.1875 2.6875 5.1875 2.6875 3 3 C1.25 1.5625 1.25 1.5625 0 0 Z " fill="#FFFFFF" transform="translate(204,920)"/>
<path d="M0 0 C0.33 0 0.66 0 1 0 C1 1.98 1 3.96 1 6 C0.01 5.01 -0.98 4.02 -2 3 C-1.34 2.01 -0.68 1.02 0 0 Z " fill="#FFFFFF" transform="translate(919,160)"/>
<path d="M0 0 C1.98 0.99 1.98 0.99 4 2 C3.67 2.66 3.34 3.32 3 4 C2.01 2.68 1.02 1.36 0 0 Z " fill="#FFFFFF" transform="translate(852,100)"/>
<path d="M0 0 C0 3 0 3 0 3 Z " fill="#FFFFFF" transform="translate(117,170)"/>
<path d="M0 0 C0.66 0 1.32 0 2 0 C1.67 0.66 1.34 1.32 1 2 C0.67 1.34 0.34 0.68 0 0 Z " fill="#FFFFFF" transform="translate(918,100)"/>
<path d="M0 0 C2 1 2 1 2 1 Z " fill="#FFFFFF" transform="translate(156,921)"/>
<path d="M0 0 C2 1 2 1 2 1 Z " fill="#FFFFFF" transform="translate(152,918)"/>
<path d="" fill="#FFFFFF" transform="translate(0,0)"/>
<path d="" fill="#FFFFFF" transform="translate(0,0)"/>
<path d="" fill="#FFFFFF" transform="translate(0,0)"/>
<path d="" fill="#FFFFFF" transform="translate(0,0)"/>
<path d="" fill="#FFFFFF" transform="translate(0,0)"/>
<path d="" fill="#FFFFFF" transform="translate(0,0)"/>
<path d="" fill="#FFFFFF" transform="translate(0,0)"/>
<path d="" fill="#FFFFFF" transform="translate(0,0)"/>
<path d="" fill="#FFFFFF" transform="translate(0,0)"/>
<path d="" fill="#FFFFFF" transform="translate(0,0)"/>
<path d="" fill="#FFFFFF" transform="translate(0,0)"/>
<path d="" fill="#FFFFFF" transform="translate(0,0)"/>
<path d="" fill="#FFFFFF" transform="translate(0,0)"/>
<path d="" fill="#FFFFFF" transform="translate(0,0)"/>
<path d="" fill="#FFFFFF" transform="translate(0,0)"/>
<path d="" fill="#FFFFFF" transform="translate(0,0)"/>
<path d="" fill="#FFFFFF" transform="translate(0,0)"/>
<path d="" fill="#FFFFFF" transform="translate(0,0)"/>
<path d="" fill="#FFFFFF" transform="translate(0,0)"/>
</svg>
